<?xml version="1.0" encoding="UTF-8"?>
<!DOCTYPE svg PUBLIC "-//W3C//DTD SVG 1.1//EN" "http://www.w3.org/Graphics/SVG/1.1/DTD/svg11.dtd">
<!-- Creator: CorelDRAW 2021.5 -->
<svg xmlns="http://www.w3.org/2000/svg" xml:space="preserve" width="103.887mm" height="31.4061mm" version="1.1" style="shape-rendering:geometricPrecision; text-rendering:geometricPrecision; image-rendering:optimizeQuality; fill-rule:evenodd; clip-rule:evenodd"
viewBox="0 0 10374.42 3136.3"
 xmlns:xlink="http://www.w3.org/1999/xlink"
 xmlns:xodm="http://www.corel.com/coreldraw/odm/2003">
 <defs>
  <style type="text/css">
   <![CDATA[
    .fil0 {fill:#0F7350}
    .fil1 {fill:#676766}
    .fil3 {fill:#0F7350;fill-rule:nonzero}
    .fil2 {fill:#676766;fill-rule:nonzero}
   ]]>
  </style>
 </defs>
 <g id="Layer_x0020_1">
  <metadata id="CorelCorpID_0Corel-Layer"/>
  <g id="_2255263574320">
   <g>
    <polygon class="fil0" points="5016.07,432.79 4453.19,1483.82 4175.47,1483.82 4413.26,1037.63 4075.28,432.79 4362.76,432.79 4550.05,792.13 4731.92,432.79 "/>
    <path class="fil0" d="M5973.94 500.84c0,97.38 -31.95,180.58 -95.81,250.13 -77.28,84.5 -185.75,126.73 -324.85,126.73 -139.87,0 -248.6,-42.22 -325.86,-126.73 -63.9,-69.54 -95.84,-154.82 -95.84,-256.05 0,-18.79 1.36,-37.15 4.1,-55.05l-294.92 -217.16 418.05 0c75.33,-65.13 176.1,-97.73 301.93,-97.73 115.7,0 211.05,32.6 285.91,97.73l418.16 0 -295.4 217.53c3.04,19.58 4.54,39.78 4.54,60.61zm-258.1 0l0 0c0,-45.34 -15.99,-83.73 -47.67,-115.15 -31.69,-31.68 -70.08,-47.41 -114.89,-47.41 -51,0 -92.48,19.08 -124.69,57.46 -26.01,30.92 -38.89,65.94 -38.89,105.11 0,39.93 12.87,75.21 38.89,106.13 32.21,38.38 73.69,57.44 124.69,57.44 45.34,0 83.73,-15.72 115.39,-47.39 31.44,-31.44 47.18,-70.06 47.18,-116.18z"/>
    <path class="fil0" d="M6845.1 1132.95l-248.88 0 0 -77.28c-23.43,29.63 -47.37,51.27 -71.34,64.92 -42,23.7 -89.92,35.56 -143.49,35.56 -86.54,0 -163.83,-29.9 -231.33,-89.65 -80.61,-71.38 -121.06,-165.9 -121.06,-283.64 0,-119.54 41.19,-215.1 123.91,-286.46 65.68,-56.92 141.17,-85.26 226.17,-85.26 49.72,0 96.09,10.82 139.89,32.47 24.99,12.1 50.75,31.95 77.26,59.5l0 -503.11 248.88 0 0 1132.95zm-241.14 -349.31l0 0c0,-44.3 -15.46,-81.92 -46.37,-112.83 -30.92,-30.92 -68.28,-46.39 -112.05,-46.39 -48.69,0 -88.9,18.56 -120.31,55.92 -25.49,30.14 -38.13,64.64 -38.13,103.29 0,38.63 12.64,73.16 38.13,103.3 30.92,37.34 71.09,55.89 120.31,55.89 44.31,0 81.91,-15.46 112.57,-46.11 30.65,-30.66 45.85,-68.26 45.85,-113.08z"/>
    <path class="fil0" d="M7712.02 1132.95l-248.85 0 0 -77.28c-23.45,29.63 -47.39,51.27 -71.37,64.92 -41.98,23.7 -89.91,35.56 -143.47,35.56 -86.54,0 -163.83,-29.9 -231.32,-89.65 -80.63,-71.38 -121.07,-165.9 -121.07,-283.64 0,-119.54 41.2,-215.1 123.89,-286.46 65.7,-56.92 141.19,-85.26 226.19,-85.26 49.71,0 96.07,10.31 139.87,30.91 25.01,12.11 50.75,31.95 77.29,59.5l0 -68.77 248.85 0 0 700.17zm-241.13 -350.09l0 0c0,-44.03 -15.47,-81.39 -46.35,-112.32 -30.93,-30.65 -68.3,-46.12 -112.08,-46.12 -48.68,0 -88.88,18.56 -120.29,55.65 -25.5,29.87 -38.13,64.13 -38.13,102.78 0,38.65 12.63,72.89 38.13,102.79 30.92,37.09 71.09,55.65 120.29,55.65 44.33,0 81.93,-15.22 112.57,-45.88 30.68,-30.38 45.86,-68.01 45.86,-112.57z"/>
    <path class="fil1" d="M8606.77 784.4c0,119.54 -41.21,215.1 -123.91,286.47 -65.7,56.94 -141.16,85.28 -226.17,85.28 -49.72,0 -96.12,-10.84 -139.89,-32.47 -25,-12.12 -50.74,-31.95 -77.28,-59.5l0 419.63 -248.85 0 0 -1051.04 248.85 0 0 78.81c22.15,-29.09 45.86,-50.75 71.36,-64.91 41.98,-23.69 89.9,-35.54 143.49,-35.54 86.54,0 163.83,29.89 231.31,89.65 80.63,71.35 121.08,165.9 121.08,283.61zm-258.14 -0.76l0 0c0,-39.68 -12.36,-74.2 -37.35,-103.29 -31.43,-37.36 -71.87,-55.92 -121.07,-55.92 -44.32,0 -81.91,15.47 -112.57,46.12 -30.67,30.65 -45.85,68.29 -45.85,113.09 0,44.31 15.43,81.92 46.36,112.85 30.91,30.89 68.26,46.35 112.06,46.35 49.2,0 89.4,-18.55 120.29,-55.89 25.5,-30.14 38.13,-64.67 38.13,-103.3z"/>
    <polygon class="fil1" points="8906.46,1132.95 8657.62,1132.95 8657.62,0 8906.46,0 "/>
    <path class="fil1" d="M9729.06 877.66c0,130.36 -61.59,216.91 -184.98,259.69 -51.26,17.76 -113.86,26.52 -187.79,26.52 -145.56,0 -249.89,-35.82 -313.51,-107.17 -40.18,-45.33 -60.29,-105.11 -60.29,-179.04l0 -444.87 248.86 0 0 397.22c0,43.79 10.58,75.99 31.42,96.61 22.41,22.15 53.61,33.21 93.24,33.21 39.45,0 70.33,-11.06 92.75,-33.21 20.86,-20.62 31.44,-52.82 31.44,-96.61l0 -397.22 248.86 0 0 444.87z"/>
    <path class="fil1" d="M10374.42 897.24c0,74.2 -26.79,135 -80.13,182.14 -60.01,53.31 -144.25,79.84 -253.23,79.84 -96.07,0 -189.59,-26.77 -280.26,-80.36l89.64 -174.67c70.84,45.36 136.77,68.02 197.58,68.02 51.8,0 77.53,-17.79 77.53,-53.08 0,-18.52 -9.02,-32.7 -27.03,-42.74 -11.58,-6.46 -37.61,-14.17 -78.31,-23.2 -45.6,-10.04 -75.5,-17.77 -89.4,-23.43 -50.22,-19.58 -83.98,-50.23 -101.49,-91.7 -9.54,-22.68 -14.44,-49.72 -14.44,-81.41 0,-61.3 20.88,-114.9 62.6,-160.49 54.11,-58.74 137.05,-88.1 249.37,-88.1 78.06,0 154.06,14.94 227.49,44.82l-83.49 159.2c-46.11,-23.71 -90.43,-35.56 -132.66,-35.56 -49.72,0 -74.47,17.54 -74.47,52.56 0,15.97 10.06,28.86 30.15,38.65 9,4.63 35.56,11.33 79.6,20.36 64.92,13.39 112.34,35.02 142.97,64.64 38.63,37.09 57.97,85.27 57.97,144.51z"/>
    <polygon class="fil1" points="5839.95,1152.22 5265.63,1152.22 5265.63,997.96 5839.95,997.96 "/>
   </g>
   <path class="fil0" d="M2121.05 1991.91l160.26 91.25 157.9 89.9c72.49,41.27 114.12,112.89 114.12,196.3l0 178.45 0 178.46c0,83.42 -41.63,155.03 -114.12,196.3l-157.9 89.91 -160.26 91.24c-71.25,40.57 -152.28,40.57 -223.54,0l-160.25 -91.24 -157.9 -89.91c-72.5,-41.27 -114.12,-112.89 -114.12,-196.3l0 -178.46 0 -178.45c0,-83.42 41.62,-155.03 114.12,-196.3l157.9 -89.9 160.25 -91.25c71.26,-40.57 152.29,-40.57 223.54,0zm-182.61 620.92c0,-21.19 -11.59,-40.7 -30.22,-50.84l-222.28 -120.96c-38.59,-21.01 -85.57,6.92 -85.57,50.83l0 259.03c0,20.66 11.02,39.77 28.92,50.1l222.27 128.58c9.36,5.4 19.25,7.87 28.9,7.87 30.24,0 57.98,-24.19 57.98,-57.99l0 -266.62zm315.35 -295.62c39.51,-21.71 40.12,-78.27 1.09,-100.84l-216.56 -125.26c-17.93,-10.37 -40.03,-10.37 -57.95,0l-216.36 125.1c-39.13,22.64 -38.39,79.38 1.32,100.96l217.7 118.46c8.64,4.68 18.15,7.03 27.68,7.03 9.6,0 19.18,-2.39 27.86,-7.15l215.22 -118.3zm-138.87 243.69c-18.5,10.18 -30,29.62 -30,50.74l0 265.06c0,33.79 27.73,57.97 57.97,57.97 9.65,0 19.55,-2.46 28.89,-7.86l217.66 -125.89c17.89,-10.33 28.91,-29.45 28.91,-50.1l0 -258.81c0,-44.02 -47.18,-71.93 -85.77,-50.73l-217.66 119.63z"/>
   <path class="fil2" d="M-0 3100.18l0 -1616.35 494.38 0c246.82,0 445.1,74.5 594.84,223.49 149.75,148.99 224.62,343.89 224.62,584.69 0,242.3 -74.87,437.57 -224.62,585.81 -149.74,148.25 -348.02,222.36 -594.84,222.36l-494.38 0zm207.68 -1417.69l0 1219.04 286.7 0c188.12,0 336.37,-53.81 444.73,-161.41 108.35,-107.61 162.54,-256.98 162.54,-448.1 0,-189.63 -54.19,-338.63 -162.54,-446.99 -108.36,-108.36 -256.61,-162.54 -444.73,-162.54l-286.7 0z"/>
   <g>
    <path class="fil2" d="M3251.21 3136.3c-164.04,0 -300.25,-55.68 -408.61,-167.05 -106.85,-114.38 -160.28,-255.1 -160.28,-422.15 0,-170.06 53.43,-310.78 160.28,-422.15 108.36,-111.37 244.56,-167.05 408.61,-167.05 112.87,0 211.44,28.22 295.72,84.65 84.27,56.44 147.5,134.33 189.63,233.65l-189.63 79.01c-58.7,-138.46 -161.79,-207.68 -309.27,-207.68 -94.82,0 -176.84,38.38 -246.07,115.13 -67.73,76.75 -101.58,171.56 -101.58,284.44 0,112.88 33.85,207.68 101.58,284.45 69.23,76.74 151.25,115.12 246.07,115.12 151.99,0 258.84,-69.23 320.55,-207.68l185.12 79.01c-40.63,99.33 -104.22,177.21 -190.76,233.65 -86.53,56.44 -186.99,84.65 -301.37,84.65zm1607.46 -36.12l-198.66 0 0 -153.51 -9.03 0c-31.61,54.19 -80.15,99.32 -145.61,135.44 -65.47,36.13 -133.57,54.19 -204.3,54.19 -135.44,0 -239.67,-38.75 -312.66,-116.26 -72.99,-77.5 -109.49,-187.74 -109.49,-330.72l0 -695.31 207.68 0 0 681.76c4.51,180.59 95.57,270.89 273.16,270.89 82.78,0 152,-33.48 207.69,-100.45 55.68,-66.98 83.53,-147.11 83.53,-240.42l0 -611.78 207.68 0 0 1106.16zm1607.62 0l-207.68 0 0 -1106.16 198.65 0 0 180.6 9.04 0c21.07,-58.7 64.33,-108.74 129.8,-150.13 65.47,-41.38 129.8,-62.07 193.02,-62.07 60.2,0 111.37,9.03 153.5,27.08l-63.2 200.92c-25.58,-10.54 -66.22,-15.8 -121.9,-15.8 -78.25,0 -146.36,31.61 -204.3,94.81 -57.94,63.21 -86.91,136.95 -86.91,221.23l0 609.52zm681.89 -338.62c0,54.18 22.96,99.32 68.86,135.44 45.91,36.12 99.7,54.19 161.41,54.19 87.29,0 165.17,-32.37 233.65,-97.08 68.48,-64.72 102.72,-140.72 102.72,-228.01 -64.71,-51.17 -155.02,-76.75 -270.9,-76.75 -84.27,0 -154.64,20.32 -211.08,60.95 -56.43,40.64 -84.65,91.06 -84.65,151.26zm268.64 -803.67c153.51,0 274.66,41.01 363.46,123.03 88.79,82.03 133.19,194.52 133.19,337.5l0 681.75 -198.66 0 0 -153.51 -9.03 0c-85.79,126.43 -200.17,189.63 -343.14,189.63 -121.9,0 -223.87,-36.12 -305.89,-108.36 -82.02,-72.24 -123.03,-162.54 -123.03,-270.9 0,-114.37 43.27,-205.43 129.8,-273.15 86.54,-67.73 202.04,-101.59 346.52,-101.59 123.41,0 225,22.57 304.76,67.73l0 -47.41c0,-72.23 -28.6,-133.57 -85.79,-183.98 -57.18,-50.42 -124.15,-75.63 -200.91,-75.63 -115.88,0 -207.68,48.9 -275.4,146.74l-182.86 -115.13c100.83,-144.48 249.83,-216.72 446.98,-216.72zm1180.81 988.77c102.34,0 185.86,-36.87 250.58,-110.62 67.73,-73.74 101.59,-170.06 101.59,-288.95 0,-115.88 -33.86,-211.45 -101.59,-286.7 -66.22,-75.25 -149.74,-112.88 -250.58,-112.88 -99.32,0 -182.85,37.63 -250.58,112.88 -67.73,75.25 -101.59,170.82 -101.59,286.7 0,117.39 33.86,212.96 101.59,286.7 67.73,75.26 151.25,112.88 250.58,112.88zm-33.86 189.63c-144.48,0 -268.64,-57.19 -372.48,-171.56 -102.34,-115.89 -153.52,-255.1 -153.52,-417.64 0,-162.54 51.18,-301.75 153.52,-417.64 103.84,-114.37 228,-171.56 372.48,-171.56 81.27,0 155.39,17.31 222.36,51.92 66.97,34.62 118.51,80.52 154.63,137.71l9.04 0 -9.04 -153.51 0 -510.19 207.69 0 0 1616.35 -198.66 0 0 -153.51 -9.04 0c-36.12,57.19 -87.66,103.1 -154.63,137.71 -66.98,34.61 -141.1,51.92 -222.36,51.92zm1286.9 0c-162.54,0 -296.48,-55.68 -401.83,-167.05 -105.35,-111.37 -158.02,-252.08 -158.02,-422.15 0,-168.56 51.17,-308.9 153.51,-421.02 102.34,-112.12 233.27,-168.18 392.8,-168.18 164.03,0 294.6,53.05 391.67,159.15 97.07,106.1 145.61,254.72 145.61,445.85l-2.27 22.58 -869.13 0c3.02,108.36 39.14,195.64 108.36,261.87 69.23,66.21 152.01,99.32 248.33,99.32 132.44,0 236.28,-66.22 311.53,-198.66l185.11 90.3c-49.66,93.31 -118.52,166.3 -206.56,218.98 -88.05,52.68 -187.75,79.01 -299.12,79.01zm-331.84 -722.39l634.35 0c-6.02,-76.76 -37.25,-140.35 -93.69,-190.76 -56.43,-50.42 -132.06,-75.63 -226.88,-75.63 -78.25,0 -145.6,24.08 -202.03,72.24 -56.44,48.15 -93.69,112.88 -111.75,194.14z"/>
    <polygon class="fil3" points="5662.48,1682.49 5662.48,3100.18 5454.79,3100.18 5454.79,1682.49 5003.3,1682.49 5003.3,1483.83 6113.98,1483.83 6113.98,1682.49 "/>
   </g>
  </g>
 </g>
</svg>
